<svg xmlns="http://www.w3.org/2000/svg" width="72" height="24" fill="none"><path fill-rule="evenodd" clip-rule="evenodd" d="M67.9 20H52c-.3 0-.6-.1-.8-.3-.2-.2-.3-.5-.3-.8V7.4c0-.3.1-.6.3-.8.2-.2.5-.3.8-.3H55L57.2 4h5.6l2.3 2.3h2.8c.3 0 .6.1.8.3.2.2.3.5.3.8V19c0 .3-.1.6-.3.8-.2.2-.5.3-.8.3zm-.6-12h-3l-2.2-2.3H58L55.6 8h-3v10.3h14.7V8zm-7.3.6a3.9 3.9 0 013.6 2.4 4 4 0 01-.8 4.4 4 4 0 01-6.7-2.8c0-1 .4-2.1 1.1-2.9A4 4 0 0160 8.6zm0 6.3a2.2 2.2 0 002-1.5 2.3 2.3 0 00-.4-2.4 2.2 2.2 0 00-3.9 1.6c0 .6.3 1.2.7 1.6.4.4 1 .7 1.6.7z" fill="#B6B6B6"/></svg>